<svg id="Layer_1" enable-background="new 0 0 66 66" height="512" viewBox="0 0 66 66" width="512" xmlns="http://www.w3.org/2000/svg"><g><g><g><path d="m27.4 17c0-1.11-.17-2.19-.48-3.2l2.87-1.85-3.24-5.05-2.88 1.85c-1.22-1.06-2.67-1.87-4.27-2.32v-3.43h-6v3.42c-1.6.45-3.05 1.26-4.27 2.33l-2.88-1.85-3.25 5.05 2.87 1.85c-.3 1.01-.47 2.09-.47 3.2s.17 2.19.48 3.2l-2.88 1.85 3.25 5.05 2.88-1.85c1.22 1.07 2.67 1.88 4.27 2.33v3.42h6v-3.42c1.6-.45 3.05-1.26 4.27-2.33l2.88 1.85 3.25-5.05-2.87-1.85c.3-1.01.47-2.09.47-3.2zm-11 6c-3.31 0-6-2.69-6-6s2.69-6 6-6 6 2.69 6 6-2.69 6-6 6z" fill="#8aba55"/></g><g><path d="m60.6 49c0-1.11-.17-2.19-.48-3.2l2.88-1.85-3.25-5.05-2.88 1.85c-1.22-1.07-2.67-1.88-4.27-2.33v-3.42h-6v3.42c-1.6.45-3.05 1.26-4.27 2.33l-2.88-1.85-3.25 5.05 2.87 1.85c-.31 1.01-.48 2.09-.48 3.2s.17 2.19.48 3.2l-2.87 1.85 3.25 5.05 2.88-1.85c1.22 1.07 2.67 1.88 4.27 2.33v3.42h6v-3.42c1.6-.45 3.05-1.26 4.27-2.33l2.88 1.85 3.25-5.05-2.87-1.85c.3-1.01.47-2.09.47-3.2zm-11 6c-3.31 0-6-2.69-6-6s2.69-6 6-6 6 2.69 6 6-2.68 6-6 6z" fill="#7cb5e8"/></g><g><path d="m18.02 36.29c.39 1.8 1.1 3.48 2.06 4.98l-2.42 3.27 3.8 3.8 3.27-2.42c1.5.96 3.18 1.67 4.98 2.06l.6 4.02h5.37l.6-4.02c1.8-.39 3.48-1.1 4.98-2.06l3.27 2.42 3.8-3.8-2.42-3.27c.96-1.5 1.67-3.18 2.06-4.98l4.02-.6v-5.37l-4.02-.6c-.39-1.8-1.1-3.48-2.06-4.98l2.42-3.27-3.8-3.8-3.27 2.42c-1.5-.96-3.18-1.67-4.98-2.06l-.59-4.03h-5.37l-.6 4.02c-1.8.39-3.48 1.1-4.98 2.06l-3.27-2.42-3.8 3.8 2.42 3.27c-.96 1.5-1.67 3.18-2.06 4.98l-4.03.6v5.37zm7.73-3.29c0-4.01 3.25-7.25 7.25-7.25 4.01 0 7.25 3.25 7.25 7.25s-3.25 7.25-7.25 7.25c-4.01 0-7.25-3.24-7.25-7.25z" fill="#ffab03"/></g><g opacity=".3"><path d="m45.92 24.73 2.42-3.27-3.8-3.8-3.27 2.42c-1.5-.96-3.18-1.67-4.98-2.06l-.6-4.02h-5.37l-.6 4.02c-1.8.39-3.48 1.1-4.98 2.06l-.59-.43c-.21 1.09-.33 2.2-.33 3.35 0 3.02.77 5.87 2.13 8.35.75-3.21 3.62-5.6 7.06-5.6 4.01 0 7.25 3.25 7.25 7.25 0 2.95-1.76 5.47-4.28 6.61 1.66.53 3.43.81 5.27.81 1.98 0 3.88-.35 5.65-.95.47-1.01.85-2.07 1.09-3.19l4.02-.6v-5.37l-4.02-.6c-.4-1.79-1.11-3.48-2.07-4.98z" fill="#fff"/></g></g><g><g><path d="m35.69 52.75h-5.37c-.37 0-.69-.27-.74-.64l-.53-3.52c-1.5-.38-2.94-.97-4.28-1.77l-2.86 2.11c-.3.22-.71.19-.98-.07l-3.8-3.8c-.26-.26-.29-.68-.07-.98l2.11-2.86c-.8-1.34-1.39-2.77-1.77-4.28l-3.52-.52c-.37-.05-.64-.37-.64-.74v-5.37c0-.37.27-.69.64-.74l3.52-.52c.38-1.51.98-2.94 1.77-4.28l-2.11-2.86c-.22-.3-.19-.71.07-.98l3.8-3.8c.26-.26.68-.29.98-.07l2.86 2.11c1.34-.8 2.77-1.39 4.28-1.77l.53-3.52c.06-.37.37-.64.74-.64h5.37c.37 0 .69.27.74.64l.53 3.52c1.5.38 2.94.97 4.28 1.77l2.86-2.11c.3-.22.71-.19.98.07l3.8 3.8c.26.26.29.68.07.98l-2.11 2.86c.8 1.34 1.39 2.77 1.77 4.28l3.52.52c.37.05.64.37.64.74v5.37c0 .37-.27.69-.64.74l-3.52.52c-.38 1.5-.97 2.94-1.77 4.28l2.11 2.86c.22.3.19.71-.07.98l-3.8 3.8c-.26.26-.68.29-.98.07l-2.86-2.11c-1.34.8-2.77 1.39-4.28 1.77l-.53 3.52c-.06.37-.37.64-.74.64zm-4.73-1.5h4.08l.5-3.38c.05-.31.28-.56.58-.62 1.68-.37 3.28-1.03 4.74-1.96.26-.17.6-.16.85.03l2.75 2.03 2.88-2.89-2.03-2.75c-.19-.25-.2-.59-.03-.85.94-1.46 1.6-3.06 1.96-4.74.07-.3.31-.54.62-.58l3.38-.5v-4.08l-3.38-.5c-.31-.05-.56-.28-.62-.58-.37-1.69-1.03-3.28-1.96-4.74-.17-.26-.16-.6.03-.85l2.03-2.75-2.88-2.88-2.75 2.03c-.25.18-.59.2-.85.03-1.46-.93-3.05-1.59-4.74-1.96-.3-.07-.54-.31-.58-.62l-.5-3.38h-4.08l-.5 3.38c-.05.31-.28.56-.58.62-1.68.37-3.28 1.03-4.74 1.96-.26.17-.6.16-.85-.03l-2.75-2.03-2.89 2.88 2.03 2.75c.19.25.2.59.03.85-.93 1.46-1.59 3.05-1.96 4.74-.07.3-.31.54-.62.58l-3.38.5v4.08l3.38.5c.31.05.56.28.62.58.37 1.68 1.03 3.28 1.96 4.74.17.26.16.6-.03.85l-2.03 2.75 2.89 2.89 2.75-2.03c.25-.19.59-.2.85-.03 1.46.93 3.05 1.59 4.74 1.96.3.07.54.31.58.62zm2.04-10.25c-4.41 0-8-3.59-8-8s3.59-8 8-8 8 3.59 8 8-3.59 8-8 8zm0-14.5c-3.59 0-6.5 2.92-6.5 6.5s2.92 6.5 6.5 6.5 6.5-2.92 6.5-6.5-2.91-6.5-6.5-6.5z"/></g><g><path d="m33 61.75c-15.85 0-28.75-12.9-28.75-28.75 0-.41.34-.75.75-.75s.75.34.75.75c0 15.03 12.22 27.25 27.25 27.25.41 0 .75.34.75.75s-.34.75-.75.75z"/></g><g><path d="m61 33.75c-.41 0-.75-.34-.75-.75 0-15.03-12.22-27.25-27.25-27.25-.41 0-.75-.34-.75-.75s.34-.75.75-.75c15.85 0 28.75 12.9 28.75 28.75 0 .41-.34.75-.75.75z"/></g><g><path d="m61 34.75c-.19 0-.38-.07-.53-.22l-3-3c-.29-.29-.29-.77 0-1.06s.77-.29 1.06 0l2.47 2.47 2.47-2.47c.29-.29.77-.29 1.06 0s.29.77 0 1.06l-3 3c-.15.15-.34.22-.53.22z"/></g><g><path d="m8 35.75c-.19 0-.38-.07-.53-.22l-2.47-2.47-2.47 2.47c-.29.29-.77.29-1.06 0s-.29-.77 0-1.06l3-3c.29-.29.77-.29 1.06 0l3 3c.29.29.29.77 0 1.06-.15.15-.34.22-.53.22z"/></g><g><path d="m12.98 28.18c-.08 0-.16-.01-.23-.04-1.36-.44-2.59-1.11-3.68-1.97l-2.42 1.56c-.35.22-.81.12-1.04-.23l-3.25-5.05c-.11-.17-.14-.37-.1-.56s.16-.36.33-.47l2.41-1.55c-.24-.94-.36-1.9-.36-2.87s.13-1.93.36-2.87l-2.41-1.55c-.17-.11-.29-.28-.33-.47s0-.4.1-.56l3.26-5.05c.22-.35.68-.45 1.03-.23l2.42 1.56c1.07-.85 2.29-1.52 3.58-1.96v-2.87c0-.41.34-.75.75-.75h6c.41 0 .75.34.75.75v2.87c1.29.44 2.51 1.1 3.58 1.96l2.42-1.56c.35-.22.81-.12 1.04.23l2.64 4.1c.22.35.12.81-.22 1.04-.35.22-.81.12-1.04-.23l-2.23-3.47-2.25 1.45c-.28.18-.65.15-.9-.07-1.16-1.02-2.5-1.75-3.98-2.17-.32-.09-.55-.39-.55-.72v-2.68h-4.5v2.67c0 .34-.22.63-.55.72-1.48.42-2.82 1.15-3.98 2.17-.25.22-.62.25-.9.07l-2.26-1.44-2.43 3.78 2.24 1.44c.28.18.41.53.31.85-.29.98-.44 1.98-.44 2.99s.15 2.01.45 2.98c.1.32-.03.67-.31.85l-2.24 1.44 2.43 3.78 2.25-1.45c.28-.18.65-.15.9.07 1.03.91 2.24 1.6 3.59 2.04.39.13.61.55.48.95-.11.32-.4.52-.72.52z"/></g><g><path d="m14.93 23.56c-.06 0-.12-.01-.18-.02-3-.76-5.1-3.45-5.1-6.54 0-3.72 3.03-6.75 6.75-6.75 2.42 0 4.67 1.31 5.87 3.42.2.36.08.82-.28 1.02s-.82.08-1.02-.28c-.93-1.64-2.68-2.66-4.56-2.66-2.89 0-5.25 2.35-5.25 5.25 0 2.41 1.63 4.5 3.97 5.08.4.1.65.51.54.91-.1.35-.4.57-.74.57z"/></g><g><path d="m52.6 63.75h-6c-.41 0-.75-.34-.75-.75v-2.87c-1.3-.44-2.5-1.09-3.58-1.96l-2.42 1.56c-.17.11-.37.15-.57.1-.19-.04-.36-.16-.47-.33l-2.64-4.1c-.22-.35-.12-.81.22-1.04.35-.22.81-.12 1.04.23l2.23 3.47 2.25-1.45c.28-.18.65-.15.9.07 1.16 1.02 2.5 1.76 3.98 2.17.32.09.55.39.55.72v2.67h4.5v-2.67c0-.34.22-.63.55-.72 1.48-.42 2.81-1.15 3.98-2.17.25-.22.62-.25.9-.07l2.25 1.45 2.43-3.78-2.24-1.44c-.28-.18-.41-.53-.31-.85.3-.97.45-1.97.45-2.98s-.15-2.01-.45-2.98c-.1-.32.03-.67.31-.85l2.24-1.44-2.43-3.78-2.25 1.45c-.28.18-.65.15-.9-.07-1.03-.91-2.24-1.6-3.59-2.04-.39-.13-.61-.55-.48-.95.13-.39.55-.61.95-.48 1.36.44 2.59 1.11 3.68 1.97l2.42-1.56c.17-.11.37-.14.56-.1s.36.16.47.33l3.25 5.05c.22.35.12.81-.23 1.04l-2.4 1.53c.24.94.36 1.9.36 2.87s-.12 1.93-.36 2.87l2.41 1.55c.35.22.45.69.22 1.04l-3.25 5.05c-.11.17-.28.29-.47.33s-.4 0-.56-.1l-2.42-1.56c-1.08.86-2.28 1.52-3.58 1.96v2.86c0 .41-.33.75-.75.75z"/></g><g><path d="m49.6 55.75c-2.42 0-4.67-1.31-5.87-3.42-.2-.36-.08-.82.28-1.02.36-.21.82-.08 1.02.28.93 1.64 2.68 2.66 4.56 2.66 2.89 0 5.25-2.35 5.25-5.25 0-2.41-1.63-4.5-3.97-5.08-.4-.1-.65-.51-.54-.91.1-.4.51-.64.91-.54 3 .76 5.1 3.44 5.1 6.54.01 3.71-3.01 6.74-6.74 6.74z"/></g></g></g></svg>