<svg id="Layer_1" viewBox="0 0 512 512" xmlns="http://www.w3.org/2000/svg" data-name="Layer 1"><g fill-rule="evenodd"><path d="m311.017 51.723h49.8a50.729 50.729 0 0 1 50.6 50.594v3.311a83.742 83.742 0 0 1 0 159.722v143.979c19.72 9.447 18.462 37.126-1.024 45.2a50.789 50.789 0 0 1 -49.58 40.571h-268.17a50.729 50.729 0 0 1 -50.595-50.594v-342.189a50.729 50.729 0 0 1 50.6-50.594h49.794v-7.2a5.476 5.476 0 0 1 5.476-5.476h38.624c5.758-14.718 23.858-22.147 40.186-22.147s34.424 7.429 40.19 22.146h38.624a5.476 5.476 0 0 1 5.475 5.476z"/><path d="m208.517 369.434-12.477-.056a5.454 5.454 0 1 1 .043-10.908l15.011.067 13.518-28.193-28.55-.048a5.454 5.454 0 1 1 0-10.908l34.919.058a15.327 15.327 0 0 1 6.339-3.562l6.11-12.743a14.465 14.465 0 0 1 -6.211-18.982l1.145-2.388-42.3-.051a5.454 5.454 0 1 1 0-10.908l47.814.057a14.469 14.469 0 0 1 17.871-4.451l9.188 4.394 75.116.06a5.455 5.455 0 1 1 0 10.909l-52.353-.042 22.7 10.883a14.466 14.466 0 0 1 6.79 19.278l-3.6 7.5 26.462.044a5.454 5.454 0 1 1 0 10.908l-36.538-.06a14.381 14.381 0 0 1 -10.27-.394l-6.11 12.745 1.152 4.4c5.29 2.536 9.637 4.053 11.859 10.369q.184.525.329 1.064l39.578.069a5.454 5.454 0 1 1 0 10.908l-25.962-.045 52 22.134v-123.533a83.528 83.528 0 0 1 -46.963-25.31l-129.066-.061a5.455 5.455 0 1 1 0-10.909l120.423.058a83.225 83.225 0 0 1 -13.516-37.644l-106.907-.081a5.455 5.455 0 1 1 0-10.909l106.5.081a83.378 83.378 0 0 1 5.672-28.17l-112.167-.085a5.454 5.454 0 1 1 0-10.908l117.364.088a83.783 83.783 0 0 1 58.665-41.19 11.349 11.349 0 0 0 -11.282-11.929h-49.8v7.06a5.476 5.476 0 0 1 -5.475 5.476h-157.625a5.476 5.476 0 0 1 -5.476-5.476v-7.06h-49.794a11.323 11.323 0 0 0 -11.278 11.277v290.215h38.048a22.28 22.28 0 0 1 22.229 22.229v41.023h219.171a11.327 11.327 0 0 0 11.266-10.762c-26.858-13.559-55.96-29.492-83.29-43.886a14.374 14.374 0 0 1 -16.093 2.535c-1.365-.654-5.835-2.646-6.784-3.439-.151.048-.3.092-.455.135l-6.11 12.742a14.466 14.466 0 0 1 6.21 18.983l-5.542 11.526c-3.953 6.771-11.066 9.291-18.4 6.478a5.391 5.391 0 0 1 -1.041-.483l-54.194-25.984a14.467 14.467 0 0 1 -6.791-19.278l5.26-10.969a14.469 14.469 0 0 1 18.685-7.035l6.11-12.743zm-37.06-224.982 1.071-.9a5.45 5.45 0 0 1 7.016 8.342l-8.087 6.81v38.725a5.476 5.476 0 0 1 -5.475 5.476h-56.721a5.476 5.476 0 0 1 -5.476-5.476v-56.723a5.476 5.476 0 0 1 5.476-5.476h56.721a5.476 5.476 0 0 1 5.475 5.476zm0 87.658 1.071-.9a5.45 5.45 0 0 1 7.016 8.342l-8.087 6.811v38.724a5.476 5.476 0 0 1 -5.475 5.476h-56.721a5.476 5.476 0 0 1 -5.476-5.476v-56.723a5.476 5.476 0 0 1 5.476-5.476h56.721a5.476 5.476 0 0 1 5.475 5.476zm0 87.658 1.071-.9a5.45 5.45 0 1 1 7.016 8.341l-8.087 6.811v38.724a5.476 5.476 0 0 1 -5.475 5.476h-56.721a5.476 5.476 0 0 1 -5.476-5.476v-56.722a5.476 5.476 0 0 1 5.476-5.475h56.721a5.475 5.475 0 0 1 5.475 5.475z" fill="#e6e6e6"/><path d="m204.744 358.509 6.35.028 13.518-28.193-28.55-.048a5.454 5.454 0 1 1 0-10.908l34.919.058a15.327 15.327 0 0 1 6.339-3.562l6.11-12.743a14.465 14.465 0 0 1 -6.211-18.982l1.145-2.388-42.3-.051a5.454 5.454 0 1 1 0-10.908l47.814.057a14.469 14.469 0 0 1 17.871-4.451l9.188 4.394 75.116.06a5.455 5.455 0 1 1 0 10.909l-52.353-.042 22.7 10.883a14.466 14.466 0 0 1 6.79 19.278l-3.6 7.5 26.462.044a5.454 5.454 0 1 1 0 10.908l-36.538-.06a14.381 14.381 0 0 1 -10.27-.394l-6.11 12.745 1.152 4.4c5.29 2.536 9.637 4.053 11.859 10.369q.184.525.329 1.064l39.578.069a5.454 5.454 0 1 1 0 10.908l-25.962-.045 52 22.134v-123.533a83.528 83.528 0 0 1 -46.963-25.31l-129.066-.061a5.455 5.455 0 1 1 0-10.909l120.423.058a83.225 83.225 0 0 1 -13.516-37.644l-106.907-.081a5.455 5.455 0 1 1 0-10.909l106.5.081a83.378 83.378 0 0 1 5.672-28.17l-112.167-.085a5.454 5.454 0 1 1 0-10.908l117.364.088a83.783 83.783 0 0 1 58.665-41.19 11.349 11.349 0 0 0 -11.282-11.929h-49.8v7.06a5.476 5.476 0 0 1 -5.475 5.476h-113.073a308.767 308.767 0 0 0 -12.691 40.175 5.542 5.542 0 0 1 .433.458 5.451 5.451 0 0 1 -.663 7.679l-2 1.682a312.027 312.027 0 0 0 -6.569 63.84q0 4.542.141 9.05a5.465 5.465 0 0 1 .338 1.9v3.746l1.071-.9a5.45 5.45 0 0 1 7.016 8.342l-7.275 6.127a309.179 309.179 0 0 0 32.475 112.832zm77.433 97.275h78.636a11.327 11.327 0 0 0 11.266-10.762c-26.858-13.559-55.96-29.492-83.29-43.886a14.374 14.374 0 0 1 -16.093 2.535c-1.365-.654-5.835-2.646-6.784-3.439-.151.048-.3.092-.455.135l-6.11 12.742a14.466 14.466 0 0 1 6.21 18.983l-2.844 5.915q9.347 9.293 19.464 17.777z" fill="#fff"/><path d="m121 343.831a5.448 5.448 0 0 1 6.8-8.513l12.92 10.337 19.783-16.663v-7.492h-45.77v45.77h45.77v-24.027l-16.185 13.632a5.452 5.452 0 0 1 -6.909.085z" fill="#64ad64"/><path d="m121 256.173a5.448 5.448 0 0 1 6.8-8.513l12.923 10.34 19.783-16.662v-7.498h-45.77v45.769h45.77v-24.024l-16.185 13.631a5.452 5.452 0 0 1 -6.909.086z" fill="#64ad64"/><path d="m136.186 466.735h-.02l-1.648-.253a5.422 5.422 0 0 1 -2.578-1.741l-59.733-62.681a5.436 5.436 0 0 1 -1.793-4.053v-295.69a22.279 22.279 0 0 1 22.229-22.228h49.794v-17.415h-49.794a39.773 39.773 0 0 0 -39.643 39.643v342.189a39.773 39.773 0 0 0 39.644 39.643h268.17a39.8 39.8 0 0 0 37.856-27.835c-5.862-.541-11.081-3.6-16.35-6.187a22.3 22.3 0 0 1 -21.506 16.608z" fill="#5591e0"/><path d="m321.877 484.149h38.936a39.8 39.8 0 0 0 37.856-27.835c-5.862-.541-11.081-3.6-16.35-6.187a22.3 22.3 0 0 1 -21.506 16.608h-64.854a311.879 311.879 0 0 0 25.918 17.414z" fill="#6babff"/><path d="m130.69 447.6v-32.839a11.324 11.324 0 0 0 -11.277-11.278h-30.761z" fill="#808080"/><path d="m311.017 80.089h49.8a22.281 22.281 0 0 1 22.224 21.747 84.524 84.524 0 0 1 17.419 1.144 39.779 39.779 0 0 0 -39.643-40.306h-49.8z" fill="#6babff"/><path d="m383.042 269.142v127.191q8.894 3.928 17.414 7.85v-136.183a84.4 84.4 0 0 1 -17.414 1.142z" fill="#6babff"/><path d="m375.833 405.076a5.447 5.447 0 0 1 -.911-.4c-13.556-5.945-27.692-11.927-42-17.98-9.875-4.178-19.833-8.392-30.034-12.781l-8.545 17.821c9.559 5.036 18.976 10.064 28.329 15.057 24.765 13.221 47.915 25.665 72.284 37.35 11.008 5.277 23.071-5.4 18.977-17.033a13.733 13.733 0 0 0 -7.035-7.848c-9.84-4.719-20.265-9.441-31.065-14.186z" fill="#c49a6c"/><path d="m153.389 85.464v7.164h146.677v-42.628h-37.231v-.021a5.455 5.455 0 0 1 -5.368-4.492c-.85-4.678-4.364-8.95-9.546-12.129-11.975-7.344-30.411-7.344-42.386 0-5.039 3.09-8.5 7.215-9.469 11.74a5.477 5.477 0 0 1 -5.446 4.902h-37.231z" fill="#1e628f"/><path d="m197.039 92.628h103.027v-42.628h-37.231v-.021a5.455 5.455 0 0 1 -5.368-4.492c-.85-4.678-4.364-8.95-9.546-12.129a37.772 37.772 0 0 0 -13.063-4.794 310.976 310.976 0 0 0 -37.819 64.064z" fill="#2c84c0"/><path d="m121 168.515a5.448 5.448 0 0 1 6.8-8.515l12.92 10.336 19.783-16.662v-7.495h-45.77v45.77h45.77v-24.023l-16.185 13.632a5.453 5.453 0 0 1 -6.909.086z" fill="#64ad64"/><path d="m230.152 375.519a5.453 5.453 0 1 1 -4.706 9.839l-7.6-3.642-4.476 9.334 36.146 17.331 4.484-9.334-12.42-5.956a5.453 5.453 0 1 1 4.706-9.839l13.224 6.348a4.359 4.359 0 0 0 5.758-2.018l17.771-37.062a4.36 4.36 0 0 0 -2.018-5.759l-37.754-18.1a4.358 4.358 0 0 0 -5.759 2.018l-17.77 37.062a4.359 4.359 0 0 0 2.017 5.759z" fill="#967654"/><path d="m230.152 375.519a5.453 5.453 0 1 1 -4.706 9.839l-7.559-3.624q5.387 8.64 11.3 16.9l20.329 9.748 4.484-9.335-12.42-5.956a5.453 5.453 0 1 1 4.706-9.839l13.224 6.348a4.359 4.359 0 0 0 5.758-2.018l17.771-37.062a4.36 4.36 0 0 0 -2.018-5.759l-37.754-18.1a4.358 4.358 0 0 0 -5.759 2.018l-17.77 37.062a4.359 4.359 0 0 0 2.017 5.759z" fill="#c49a6c"/></g><path d="m263.916 301.16h10.352v40.085h-10.352z" fill="#c49a6c" transform="matrix(.432 -.902 .902 .432 -136.88 424.973)"/><path d="m291.613 357.858-16.506 34.426c-.058.122-.118.242-.18.362 1.912.916 3.323 1.948 5.133 1.312a3.416 3.416 0 0 0 1.959-1.743l13.69-28.551a3.5 3.5 0 0 0 -1.612-4.615z" fill="#c49a6c" fill-rule="evenodd"/><path d="m299.024 317.719c2.752 1.211 4.884 2.978 7.066 2.211a3.5 3.5 0 0 0 2.008-1.787l5.25-10.949a3.587 3.587 0 0 0 -1.657-4.733l-54.649-26.2a3.587 3.587 0 0 0 -4.733 1.657l-5.251 10.95a3.588 3.588 0 0 0 1.657 4.733z" fill="#c49a6c" fill-rule="evenodd"/><path d="m437.69 134.038a72.762 72.762 0 1 0 0 102.9 72.764 72.764 0 0 0 0-102.9zm-87.017 54.662a5.463 5.463 0 0 1 7.444-8l19.266 17.954 36.786-37.773a5.46 5.46 0 0 1 7.831 7.613l-40.432 41.519a5.463 5.463 0 0 1 -7.721.277z" fill="#64ad64" fill-rule="evenodd"/><path d="m254.061 422.653-54.206-25.99a3.661 3.661 0 0 0 -5.394 1.9l-5.033 10.5a3.588 3.588 0 0 0 1.657 4.733l54.651 26.2a3.586 3.586 0 0 0 4.73-1.652l5.253-10.955a3.589 3.589 0 0 0 -1.658-4.736z" fill="#967654" fill-rule="evenodd"/><path d="m254.061 422.653-9.814-4.705q5.049 5.981 10.387 11.7l1.085-2.263a3.589 3.589 0 0 0 -1.658-4.732z" fill="#c49a6c" fill-rule="evenodd"/></svg>