<svg clip-rule="evenodd" fill-rule="evenodd" stroke-linejoin="round" stroke-miterlimit="2" viewBox="0 0 510 510" xmlns="http://www.w3.org/2000/svg"><g id="Artboard401"><path d="m66.243 177.732c-34.473-9.442-59.243-41.219-59.243-77.527v-51.111c0-3.201 1.908-6.094 4.85-7.354l59.233-25.371c2.011-.862 4.287-.862 6.299 0l59.253 25.37c2.943 1.26 4.851 4.153 4.851 7.355v8.005h182.819c2.122 0 4.157.843 5.657 2.343l48.364 48.364c1.5 1.5 2.343 3.535 2.343 5.657v138.812l39.967 40.018c6.097 6.098 6.097 16.075 0 22.172l-10.858 10.858c-5.849 5.848-15.268 6.087-21.408.714-4.215 3.19-7.967 6.083-11.387 8.805 25.926 24.705 119.908 114.261 119.893 114.247 3.788 3.563 5.746 7.926 6.091 12.867.004.061.008.123.011.185.247 5.325-1.464 9.868-5.158 13.466 0 0-13.491 13.491-13.48 13.48-3.601 3.701-8.145 5.415-13.472 5.168-5.11-.233-9.436-2.26-13.039-6.084l-77.16-80.93v44.634c0 4.418-3.582 8-8 8h-38.156l3.103 13.695c.537 2.373-.034 4.861-1.552 6.761-1.518 1.901-3.818 3.007-6.251 3.007h-110.613c-2.432 0-4.732-1.106-6.25-3.007-1.518-1.9-2.089-4.388-1.552-6.761 0 0 1.579-6.969 3.103-13.695h-140.258c-4.418 0-8-3.582-8-8zm75.243-104.633v27.106c0 36.302-24.761 68.074-59.243 77.523v266.147h136.373c2.619-5.061 7.985-8.228 13.953-8.228h83.876c5.967 0 11.334 3.167 13.952 8.228h34.272v-53.416l-21.132-22.164c-2.714 3.411-5.598 7.151-8.777 11.352 5.372 6.14 5.135 15.558-.697 21.39l-10.858 10.926c-.006.006-.012.012-.017.018-6.078 6.077-16.162 6.077-22.24 0l-.003-.004-13.424-13.441c-.602.144-1.23.221-1.875.221h-53.801c-4.416 0-8-3.585-8-8s3.584-8 8-8h39.917l-10.114-10.127h-29.803c-4.416 0-8-3.585-8-8s3.584-8 8-8h14.333c-3.879-6.062-3.175-14.263 2.11-19.549l10.858-10.857c5.827-5.828 15.337-6.068 21.468-.721 25.657-19.44 34.123-27.907 53.609-53.614-5.363-6.14-5.123-15.551.706-21.38l10.858-10.926c.005-.006.011-.012.017-.017 5.089-5.09 12.882-5.931 18.865-2.524v-115.579h-40.364c-4.418 0-8-3.582-8-8v-40.364zm211.869 32.364-21.05-21.05v21.05zm23.568 209.176-31.302-31.302c-19.241 25.273-28.337 34.37-53.558 53.564l31.299 31.299c5.103-6.708 9.481-12.256 13.65-17.199l.014-.016c7.349-8.621 14.061-15.333 22.697-22.695l.016-.014c4.932-4.159 10.476-8.534 17.184-13.637zm-12.227 30.596c-3.807 3.483-7.282 6.959-10.769 10.771l115.498 121.141c.014.014.027.028.041.043.598.637 1.283 1.043 2.132 1.082h.009c.488.023.944-.011 1.273-.351.032-.032.063-.064.095-.096l13.572-13.573c.032-.032.065-.063.097-.095.317-.306.368-.724.354-1.189-.081-.851-.427-1.607-1.086-2.225-.013-.013-.027-.026-.041-.039zm-290.463-312.81-51.233 21.945v45.835c0 30.391 21.672 56.813 51.234 63.004 29.579-6.19 51.252-32.613 51.252-63.004v-45.834zm-30.074 68.427c-3.126-3.119-3.131-8.188-.012-11.313s8.189-3.131 11.314-.012l13.863 13.836 23.132-28.607c2.776-3.434 7.817-3.967 11.251-1.191 3.433 2.776 3.966 7.818 1.19 11.251l-28.717 35.514c-1.425 1.763-3.531 2.838-5.795 2.958-2.263.121-4.472-.724-6.076-2.326zm90.384 146.12h50.485c8.028 0 14.587 6.56 14.587 14.587v50.486c0 8.028-6.559 14.587-14.587 14.587h-50.485c-8.028 0-14.587-6.559-14.587-14.587v-50.486c0-8.027 6.559-14.587 14.587-14.587zm1.413 63.66h47.659v-47.66h-47.659zm4.733-19.477c-3.122-3.122-3.122-8.192 0-11.314 3.123-3.122 8.192-3.122 11.314 0l4.787 4.787 10.192-12.604c2.776-3.433 7.817-3.967 11.251-1.191 3.433 2.777 3.967 7.818 1.19 11.251l-15.782 19.518c-1.426 1.764-3.534 2.839-5.799 2.959-2.265.119-4.475-.728-6.078-2.332zm-6.146 46.687h50.485c8.021 0 14.587 6.589 14.587 14.609v50.485c0 8.028-6.559 14.587-14.587 14.587h-50.485c-8.028 0-14.587-6.559-14.587-14.587v-50.485c0-8.02 6.566-14.609 14.587-14.609zm1.413 16v47.681h47.659v-47.681zm4.739 28.21c-3.125-3.119-3.13-8.189-.011-11.314s8.188-3.13 11.314-.011l4.787 4.777 10.197-12.61c2.776-3.434 7.817-3.967 11.251-1.191 3.433 2.776 3.967 7.817 1.19 11.251l-15.782 19.518c-1.425 1.762-3.531 2.838-5.795 2.958-2.264.121-4.472-.725-6.077-2.326zm-6.152-225.949h50.485c8.028 0 14.587 6.559 14.587 14.587v50.485c0 8.028-6.559 14.587-14.587 14.587h-50.485c-8.028 0-14.587-6.559-14.587-14.587v-50.485c0-8.028 6.559-14.587 14.587-14.587zm1.413 63.659h47.659v-47.659l-47.659-.001zm4.739-19.471c-3.125-3.119-3.13-8.189-.011-11.314s8.188-3.13 11.314-.011l4.787 4.777 10.197-12.611c2.776-3.433 7.817-3.966 11.251-1.19 3.433 2.776 3.967 7.817 1.19 11.251l-15.782 19.518c-1.425 1.762-3.531 2.838-5.795 2.958-2.264.121-4.472-.725-6.077-2.326zm91.15-9.422c-4.416 0-8-3.585-8-8s3.584-8 8-8h82.646c4.416 0 8 3.585 8 8s-3.584 8-8 8zm0 90.87c-4.416 0-8-3.585-8-8 0-4.416 3.584-8 8-8h82.646c4.416 0 8 3.584 8 8 0 4.415-3.584 8-8 8zm0 26.126c-4.416 0-8-3.584-8-8 0-4.415 3.584-8 8-8h53.801c4.415 0 8 3.585 8 8 0 4.416-3.585 8-8 8zm0-90.869c-4.416 0-8-3.585-8-8s3.584-8 8-8h53.801c4.415 0 8 3.585 8 8s-3.585 8-8 8zm114.642 44.58 52.205 52.205 10.402-10.402-52.204-52.271zm-30.244 190.071h-83.472c-.666 2.941-3.555 15.691-3.555 15.691h90.582zm-.04-.177-.096-.423c-.006-.027-.012-.054-.018-.081.036.163.052.363.114.504zm-83.392 0c.062-.141.078-.341.114-.504-.006.027-.012.054-.018.081zm27.019-103.303 52.237 52.305 10.438-10.502-52.239-52.239z"/></g></svg>