<?xml version="1.0" encoding="UTF-8" standalone="no"?>
<!DOCTYPE svg PUBLIC "-//W3C//DTD SVG 1.1//EN" "http://www.w3.org/Graphics/SVG/1.1/DTD/svg11.dtd">
<svg width="100%" height="100%" viewBox="0 0 1080 1080" version="1.1" xmlns="http://www.w3.org/2000/svg" xmlns:xlink="http://www.w3.org/1999/xlink" xml:space="preserve" xmlns:serif="http://www.serif.com/" style="fill-rule:evenodd;clip-rule:evenodd;stroke-linejoin:round;stroke-miterlimit:2;">
    <g transform="matrix(1.22541,0,0,1.25909,-95.241,-139.097)">
        <g transform="matrix(1.44,0,0,1,-54.5954,0)">
            <g transform="matrix(256.753,0,0,256.753,671.734,629.22)">
            </g>
            <text x="124.081px" y="629.22px" style="font-family:'BebasNeue-Regular', 'Bebas Neue', sans-serif;font-size:256.753px;fill:white;">F<tspan x="222.417px 335.645px 449.386px 562.101px " y="629.22px 629.22px 629.22px 629.22px ">UBON</tspan></text>
        </g>
    </g>
    <g transform="matrix(1,0,0,1,23.3839,0.365943)">
        <g>
            <g transform="matrix(1,0,0,1,18.4403,0)">
                <path d="M921.673,377.203L962.792,382.314C863.202,202.842 701.808,59.256 553.099,45C513.598,41.213 466.199,68.063 466.199,68.063C592.362,80.665 755.717,150.341 921.673,377.203Z" style="fill:rgb(44,22,48);"/>
            </g>
            <path d="M860.828,373.669L981.232,382.314C819.439,146.883 665.489,76.12 523.798,51.474L429.745,85.4C555.908,98.002 694.872,146.806 860.828,373.669Z" style="fill:rgb(232,63,6);"/>
        </g>
        <g>
            <path d="M801.964,367.642C609.333,212.833 413.338,98.248 197.174,224.757L216.701,201.414C329.608,81.03 505.585,106.247 632.055,195.501C735.126,268.242 781.542,341.705 801.964,367.642Z"/>
            <path d="M801.964,367.642L713.028,367.642C563.876,206.836 376.642,143.85 197.174,224.757C346.948,109.087 533.169,81.071 801.964,367.642Z" style="fill:rgb(232,63,6);"/>
        </g>
        <g>
            <g transform="matrix(1,0,0,1,-1.27778,-12.0099)">
                <path d="M53.278,404.516C184.138,269.651 349.078,240.835 517.308,266.929C351.489,186.97 185.694,173.686 53.278,404.516Z"/>
            </g>
            <path d="M52,392.507C182.86,257.641 349.56,228.825 517.789,254.919C350.44,194.863 182.601,183.358 52,392.507Z" style="fill:rgb(232,63,6);"/>
        </g>
    </g>
    <g transform="matrix(-1,0,0,-1,1056.62,1079.4)">
        <g>
            <g transform="matrix(1,0,0,1,18.4403,0)">
                <path d="M921.673,377.203L962.792,382.314C863.202,202.842 701.808,59.256 553.099,45C513.598,41.213 466.199,68.063 466.199,68.063C592.362,80.665 755.717,150.341 921.673,377.203Z" style="fill:rgb(44,22,48);"/>
            </g>
            <path d="M860.828,373.669L981.232,382.314C819.439,146.883 665.489,76.12 523.798,51.474L429.745,85.4C555.908,98.002 694.872,146.806 860.828,373.669Z" style="fill:rgb(232,63,6);"/>
        </g>
        <g>
            <path d="M801.964,367.642C609.333,212.833 413.338,98.248 197.174,224.757L216.701,201.414C329.608,81.03 505.585,106.247 632.055,195.501C735.126,268.242 781.542,341.705 801.964,367.642Z"/>
            <path d="M801.964,367.642L713.028,367.642C563.876,206.836 376.642,143.85 197.174,224.757C346.948,109.087 533.169,81.071 801.964,367.642Z" style="fill:rgb(232,63,6);"/>
        </g>
        <g>
            <g transform="matrix(1,0,0,1,-1.27778,-12.0099)">
                <path d="M53.278,404.516C184.138,269.651 349.078,240.835 517.308,266.929C351.489,186.97 185.694,173.686 53.278,404.516Z"/>
            </g>
            <path d="M52,392.507C182.86,257.641 349.56,228.825 517.789,254.919C350.44,194.863 182.601,183.358 52,392.507Z" style="fill:rgb(232,63,6);"/>
        </g>
    </g>
</svg>
