<?xml version="1.0"?>
<svg xmlns="http://www.w3.org/2000/svg" id="Layer_1" data-name="Layer 1" viewBox="0 0 32 32"><path d="M25.858,26.5H27a.99984.99984,0,0,0,.96484-.73682l3-11a.93847.93847,0,0,0,.00891-.13324A.93738.93738,0,0,0,31,14.5v-3a1,1,0,0,0-1-1h-.27911L27.94873,5.18359A1,1,0,0,0,27,4.5H24.7207l-.772-2.31641a1,1,0,0,0-1.57324-.46435l-4.74835,3.7987L15.89453,2.05273a1.00021,1.00021,0,0,0-1.519-.33349l-4.4292,3.543L7.55469,3.668a.99993.99993,0,0,0-1.42285.33594L2.4198,10.5H2a1,1,0,0,0-1,1v3a.94047.94047,0,0,0,.02631.13013.93661.93661,0,0,0,.00885.13305l3,11A.99984.99984,0,0,0,5,26.5H6.142a3.98208,3.98208,0,0,0,1.24036,2H2a1,1,0,0,0,0,2H30a1,1,0,0,0,0-2H24.61761A3.98208,3.98208,0,0,0,25.858,26.5ZM3.30933,15.5H28.69067l-2.45434,9H25.858a3.98066,3.98066,0,0,0-7.71594,0H13.858a3.98066,3.98066,0,0,0-7.71594,0H5.76367Zm9.30828,13a3.98208,3.98208,0,0,0,1.24036-2H18.142a3.98208,3.98208,0,0,0,1.24036,2Z"/></svg>
