<svg clip-rule="evenodd" fill-rule="evenodd" height="512" image-rendering="optimizeQuality" shape-rendering="geometricPrecision" text-rendering="geometricPrecision" viewBox="0 0 512 512" width="512" xmlns="http://www.w3.org/2000/svg"><g id="Layer_x0020_1"><g fill="#ffba00"><path d="m240.689 41.9647-16.239-.445277c1.99961 4.82954 1.14095 10.767-4.69608 14.4343l-20.1827 12.6886-15.3308 20.7001c.740553 7.49412-5.2571 15.8174-14.9032 13.2662l-3.36261-.888192-.464175-.121654-13.9689-3.68741-23.5182 46.3135 28.0961 12.4158c3.40513 1.50355 5.91734 4.50356 6.80435 8.11538l5.45671 22.9631h270.908l3.59292-5.10474-11.3788-21.2115-54.2328-28.878c-.69449-.314174-1.34646-.693309-1.95237-1.12559-3.7134-2.49213-5.20513-6.10632-5.09293-9.68861-.0649608-3.01654 1.01457-6.10986 3.52324-8.61971l13.1044-13.1091-7.03349-16.2745c-1.47402-1.52126-32.4816-13.8355-36.4619-18.0178-8.14254-8.54648-17.9091-18.2457-24.2587-24.0202-4.84726 3.17599-11.9563 6.66026-22.3595 10.5331-1.08544.571655-2.31615.98268-3.69568 1.19646-1.27441.265749-2.48859.321261-3.6319.201969l-36.8777.755908c-8.03979 0-12.0118-6.26459-11.8441-12.3922z"/><path d="m445.247 211.718018h-286.015-94.1885-20.8406v51.8128h27.2115l.382678-.00590553 68.9211.00118111c6.42049 0 10.2307 3.96379 11.4331 8.66932l.127559.545671.103937.551576.0814963.55512.0578742.559844.0342521.561025.0118111.562206-.0118111.562206-.0342521.561025-.0578742.559844-.0814963.55512-.103937.551576-.127559.540947c-1.20237 4.70553-5.01143 8.66932-11.4331 8.66932h-54.0439l7.08545 32.7284h334.479l7.08782-32.7332h-255.446l-.728742-.0177166-.706301-.0507876-.682679-.0850396-.659057-.115748-.636616-.147638-.614175-.175985-.589372-.205512-.566931-.232678-.54449-.258662-.520868-.284647-.497246-.308269-.474805-.331891-.451182-.354332-.42756-.374411-.405119-.393308-.382678-.413387-.357875-.429923-.335434-.447639-.312993-.461812-.289371-.477167-.265749-.490159-.243308-.50197-.219686-.5126-.197245-.522049-.173623-.531498-.15-.539765-.127559-.545671-.103937-.551576-.0814963-.55512-.0578742-.559844-.0342521-.561025-.01063-.562206.0118111-.562206.0342521-.561025.0578742-.559844.0814963-.55512.103937-.551576.127559-.545671.15-.539765.173623-.531498.197245-.522049.219686-.5126.242127-.50197.26693-.490159.289371-.477167.311812-.461812.335434-.447639.359056-.429923.381497-.413387.405119-.393308.428741-.374411.451182-.354332.473624-.331891.498427-.308269.520868-.284647.543309-.258662.566931-.232678.590553-.205512.612994-.175985.636616-.147638.659057-.115748.682679-.0850396.706301-.0507876.728742-.0177166h270.324 27.5942v-51.808h-31.9406l-.354332.00472442-.2563-.00472442z"/><path d="m143.846 187.719-2.82521-11.5122-44.686-19.7457c-2.413 11.1-6.68388 21.9461-11.1414 31.258h58.6525z"/><path d="m423.041 344.259h-324.086l13.9205 64.2959h4.31694c8.17089-13.4032 19.9631-22.5213 33.0627-27.3698l1.03111-.377954.134646-.0472442c6.86695-2.44016 14.2536-3.77245 21.9461-3.77245 7.69727 0 15.0863 1.33347 21.9568 3.77481l.122835.0437009 1.0441.382678c13.0973 4.84962 24.8871 13.9666 33.0556 27.3662h62.9057c8.15672-13.376 19.9205-22.4835 32.9907-27.3402l1.17048-.431104.0236221-.00826774c6.88112-2.45079 14.2843-3.78781 21.9946-3.78781 7.68546 0 15.065 1.32993 21.9272 3.76537l.184253.0649608.968507.355513c13.1126 4.8449 24.9166 13.9666 33.0946 27.3816h4.3134l13.9217-64.2959z"/><path d="m215.121 442.7379c0-17.263-10.5272-32.1107-25.5001-38.4615l-.0153544-.00708664-.764176-.311812c-9.87523-3.84096-21.0343-3.84568-30.9119-.0141733-15.4028 6.15238-26.3162 21.2245-26.3162 38.7946 0 23.0198 18.7288 41.7533 41.7545 41.7533 23.0245 0 41.7533-18.7288 41.7533-41.7533z"/><path d="m333.209 403.937c-15.4099 6.14884-26.3304 21.2245-26.3304 38.8005 0 23.0198 18.7335 41.7533 41.7533 41.7533 23.0209 0 41.7545-18.7288 41.7545-41.7533 0-17.2406-10.5-32.0706-25.4422-38.4356-10.0737-4.17403-21.58-4.29923-31.7351-.364962z"/></g><path d="m413.804 427.556c-1.7563 0-3.49253.0413387-5.19687.0933074.509057 3.29174.774806 6.66144.774806 10.0937.00236221 15.8375-5.62679 30.3863-14.9906 41.7486h69.9416c15.7997 0 15.7973 24.0001 0 24.0001h-120.701-175.264-120.701c-15.7997 0-15.7997-24.0001 0-24.0001h69.9439c-9.36381-11.3622-14.993-25.9111-14.993-41.7486 0-3.43229.265749-6.80199.774806-10.0937-1.70315-.0519687-3.44056-.0933074-5.19687-.0933074-5.65041 0-10.5331-3.93781-11.7284-9.46302l-29.3493-135.561h-29.9162c-6.63073 0-12-5.37049-12-12v-75.8117c0-6.63073 5.36931-12 12-12h25.9702c23.0103-40.63 10.6713-51.6923 21.6367-58.8415 3.39568-2.21694 7.68309-2.56182 11.4-.921263l14.8264 6.55159 28.4942-56.1096c2.55946-5.04096 8.29136-7.61695 13.7622-6.16655l15.5894 4.11379c6.87404-9.55279 18.0426-24.9603 21.006-26.8241l22.0961-13.8886c13.3725-8.41066 26.1497 11.915 12.7713 20.3209l-20.1827 12.6886-15.3308 20.7001c.740553 7.49412-5.2571 15.8174-14.9032 13.2662l-3.36261-.888192-.464175-.121654-13.9689-3.68741-23.5182 46.3135 28.0961 12.4158c3.40513 1.50355 5.91734 4.50356 6.80435 8.11538l5.45671 22.9631h270.908l3.59292-5.10474-11.3788-21.2115-54.2328-28.878c-.69449-.314174-1.34646-.693309-1.95237-1.12559-3.7134-2.49213-5.20513-6.10632-5.09293-9.68861-.0649608-3.01654 1.01457-6.10986 3.52324-8.61971l13.1044-13.1091-7.03349-16.2745c-1.47402-1.52126-32.4816-13.8355-36.4619-18.0178-8.14254-8.54648-17.9091-18.2457-24.2587-24.0202-4.84726 3.17599-11.9563 6.66026-22.3595 10.5331-1.08544.571655-2.31615.98268-3.69568 1.19646-1.27441.265749-2.48859.321261-3.6319.201969l-36.8777.755908c-15.6284 0-15.8859-23.6717-.242127-23.9942l36.3308-.750002c26.5146-9.88349 15.13-11.0575 24.5233-14.8193 7.06301-2.82993 10.6713-4.26615 46.0324 32.7084l34.9596 16.4079c2.6504 1.24134 4.75395 3.4134 5.91616 6.10159 14.8831 34.4292 18.6461 32.9753 2.34804 48.7053l43.597 23.2123c2.09528 1.11615 3.81261 2.82993 4.93702 4.92049 14.6894 27.3532 20.1603 33.117 17.1674 40.8698h21.6946c6.63073 0 12 5.36931 12 12v75.8069c0 6.62955-5.36931 12-12 12h-29.9186l-26.204 121.029h32.3056v-5.16734c0-15.7997 24.0001-15.7997 24.0001 0v34.3288c0 6.62955-5.37049 12-12 12-6.62955 0-12-5.37049-12-12v-5.16143h-47.1769zm-347.39-169.025.382678-.00590553 68.9211.00118111c6.42049 0 10.2307 3.96379 11.4331 8.66932.0460631.179528.0885829.360237.127559.540947v.00472442c.0377954.18189.0732286.363781.103937.546852v.00472442c.0307088.183071.0578742.366143.0814963.550395v.00472442c.022441.184253.0437009.370867.0578742.55512v.00472442c.0153544.185434.0271654.370867.0342521.556301v.00472442c.00708664.185434.0118111.372048.0118111.557482v.00472442c0 .185434-.00354332.372048-.0118111.557482v.00472442c-.00826774.185434-.0188977.370867-.0342521.556301v.00472442c-.0153544.185434-.0342521.370867-.0578742.55512v.00472442c-.0236221.184253-.0507876.367324-.0814963.550395v.00472442c-.0307088.183071-.0649608.364962-.103937.546852v.00472442c-.0377954.18189-.0814963.361418-.127559.540947-1.20237 4.70553-5.01143 8.66932-11.4331 8.66932h-54.0439l7.08545 32.7284h334.479l7.08782-32.7332h-255.446c-.246851 0-.490159-.00590553-.728742-.0177166-.238583-.0118111-.474805-.0271654-.706301-.0507876-.231497-.022441-.45945-.0519687-.682679-.0850396-.223229-.033071-.444096-.0720475-.659057-.115748-.216142-.0437009-.428741-.0944885-.636616-.147638-.207875-.0543309-.413387-.112205-.612994-.175985h-.00118111c-.200788-.0637797-.395671-.132284-.589372-.205512-.19252-.0732286-.381497-.151182-.566931-.232678-.184253-.0814963-.366143-.167717-.543309-.258662h-.00118111c-.177166-.0909452-.350788-.186615-.519687-.284647h-.00118111c-.170079-.0992129-.335434-.201969-.497246-.308269s-.32008-.218505-.473624-.331891h-.00118111c-.153544-.114567-.303544-.232678-.450001-.354332h-.00118111c-.146457-.121654-.289371-.246851-.42756-.374411-.139371-.128741-.274017-.258662-.405119-.393308-.131103-.134646-.257481-.272835-.381497-.413387h-.00118111c-.124016-.140552-.242127-.283465-.357875-.429923-.115748-.146457-.227953-.295276-.335434-.447639-.107481-.151182-.211418-.305906-.311812-.461812h-.00118111c-.100394-.155906-.194882-.316536-.28819-.477167h-.00118111c-.0921263-.16063-.18189-.324804-.265749-.490159-.0850396-.165355-.164174-.331891-.242127-.50197h-.00118111c-.0767719-.168898-.148819-.340159-.218505-.5126h-.00118111c-.0696853-.172441-.134646-.347245-.196064-.522049h-.00118111c-.0614175-.175985-.118111-.353151-.172441-.531498h-.00118111c-.0543309-.178347-.102756-.359056-.148819-.539765h-.00118111c-.0460631-.180709-.0874018-.3626-.126378-.545671h-.00118111c-.0389765-.183071-.0720475-.366143-.102756-.551576h-.00118111c-.0307088-.184253-.0566931-.369686-.0803152-.55512h-.00118111c-.0236221-.185434-.0413387-.373229-.0566931-.559844h-.00118111c-.0153544-.186615-.0259843-.374411-.033071-.561025h-.00118111c-.00826774-.187796-.01063-.374411-.01063-.562206 0-.187796.00236221-.375592.01063-.562206h.00118111c.00708664-.187796.0177166-.374411.033071-.561025h.00118111c.0153544-.186615.033071-.374411.0566931-.559844h.00118111c.0236221-.185434.0496065-.369686.0803152-.55512h.00118111c.0307088-.184253.0637797-.368505.102756-.551576h.00118111c.0389765-.183071.0791341-.364962.126378-.545671h.00118111c.0460631-.180709.0956696-.361418.148819-.539765h.00118111c.0543309-.178347.111024-.355513.172441-.531498h.00118111c.0614175-.175985.127559-.348426.196064-.522049h.00118111c.0696853-.172441.141733-.343702.218505-.5126h.00118111c.0767719-.168898.158268-.336615.242127-.50197.0850396-.165355.173623-.329529.265749-.490159h.00118111c.0921263-.16063.187796-.321261.28819-.477167h.00118111c.100394-.155906.204331-.310631.311812-.461812.107481-.151182.219686-.301182.335434-.447639s.233859-.290552.357875-.429923h.00118111c.122835-.140552.250394-.278741.381497-.413387s.265749-.264568.405119-.393308c.139371-.128741.282284-.252757.42756-.374411h.00118111c.146457-.121654.296458-.239765.450001-.354332h.00118111c.153544-.114567.311812-.225591.473624-.331891.161812-.107481.328347-.209056.497246-.308269h.00118111c.168898-.0992129.342521-.194882.519687-.284647h.00118111c.177166-.0909452.359056-.177166.543309-.258662.185434-.0826774.374411-.159449.566931-.232678.193701-.0732286.387403-.141733.589372-.205512h.00118111c.199607-.0637797.405119-.122835.612994-.175985.207875-.0543309.420474-.102756.636616-.147638.216142-.0437009.435828-.0826774.659057-.115748.223229-.0342521.451182-.0625986.682679-.0850396s.466537-.0401576.706301-.0507876c.238583-.0118111.481891-.0177166.728742-.0177166h270.324 27.5942v-51.808h-31.9406l-.354332.00472442-.2563-.00472442h-286.015-94.1885-20.8406v51.8128h27.2115zm226.458 220.96c-9.36381-11.3622-14.993-25.9111-14.993-41.7486 0-3.46418.271654-6.86577.79016-10.187h-45.3379c.518506 3.32127.79016 6.72286.79016 10.187 0 15.8375-5.62915 30.3863-14.993 41.7486h73.7435zm-212.678-296.772h58.6525l-2.82521-11.5122-44.686-19.7457c-2.413 11.1-6.68388 21.9461-11.1414 31.258zm279.751 216.583c-10.0737-4.17403-21.58-4.29923-31.7351-.364962-15.4099 6.14884-26.3304 21.2245-26.3304 38.8005 0 23.0198 18.7335 41.7533 41.7533 41.7533 23.0209 0 41.7545-18.7288 41.7545-41.7533 0-17.2406-10.5-32.0706-25.4422-38.4356zm-39.5009-23.0871c.388584-.146457.778349-.291733 1.17048-.431104l.0236221-.00826774c6.88112-2.45079 14.2843-3.78781 21.9946-3.78781 7.68546 0 15.065 1.32993 21.9272 3.76537l.184253.0649608c.323623.114567.644884.236221.968507.355513 13.1126 4.8449 24.9166 13.9666 33.0946 27.3816h4.3134l13.9217-64.2959h-324.086l13.9205 64.2959h4.31694c8.17089-13.4032 19.9631-22.5213 33.0627-27.3698.343702-.127559.686223-.257481 1.03111-.377954l.134646-.0472442c6.86695-2.44016 14.2536-3.77245 21.9461-3.77245 7.69727 0 15.0863 1.33347 21.9568 3.77481l.122835.0437009c.349607.125197.696853.251576 1.0441.382678 13.0973 4.84962 24.8871 13.9666 33.0556 27.3662h62.9057c8.15672-13.376 19.9205-22.4835 32.9907-27.3402zm-135.822 23.0611-.0153544-.00708664c-.251576-.103937-.500789-.210237-.753546-.308269l-.01063-.00354332c-9.87523-3.84096-21.0343-3.84568-30.9119-.0141733-15.4028 6.15238-26.3162 21.2245-26.3162 38.7946 0 23.0198 18.7288 41.7533 41.7545 41.7533 23.0245 0 41.7533-18.7288 41.7533-41.7533 0-17.263-10.5272-32.1107-25.5001-38.4615z" fill="#000002"/></g></svg>